<svg width="121" height="156" viewBox="0 0 121 156" fill="none" xmlns="http://www.w3.org/2000/svg">
<g filter="url(#filter0_f_101_70)">
<path d="M93.4582 15.3847C94.2201 15.927 94.7752 16.7108 95.0329 17.6082C95.2905 18.5055 95.2355 19.4633 94.8767 20.3251L75.4947 66.9824L102.862 69.5731C103.666 69.6489 104.43 69.9579 105.061 70.462C105.691 70.9661 106.16 71.6432 106.409 72.4097C106.658 73.1762 106.677 73.9985 106.463 74.7752C106.249 75.5519 105.811 76.2489 105.204 76.7803L32.7107 140.352C32.0092 140.968 31.1192 141.328 30.1857 141.375C29.2522 141.421 28.3302 141.151 27.5701 140.608C26.81 140.065 26.2566 139.282 26 138.385C25.7434 137.489 25.7989 136.532 26.1573 135.671L45.5401 89.006L18.1732 86.4153C17.3689 86.3395 16.6043 86.0305 15.9739 85.5264C15.3435 85.0223 14.8748 84.3452 14.6257 83.5787C14.3766 82.8122 14.358 81.9899 14.5721 81.2132C14.7863 80.4365 15.2238 79.7395 15.8308 79.2081L88.3241 15.6362C89.0247 15.0214 89.9134 14.6611 90.8457 14.6139C91.7779 14.5668 92.699 14.8355 93.459 15.3765L93.4582 15.3847Z" fill="#FFBD00"/>
</g>
<defs>
<filter id="filter0_f_101_70" x="0.424316" y="0.608643" width="120.187" height="154.771" filterUnits="userSpaceOnUse" color-interpolation-filters="sRGB">
<feFlood flood-opacity="0" result="BackgroundImageFix"/>
<feBlend mode="normal" in="SourceGraphic" in2="BackgroundImageFix" result="shape"/>
<feGaussianBlur stdDeviation="7" result="effect1_foregroundBlur_101_70"/>
</filter>
</defs>
</svg>
